<?xml version="1.0" encoding="UTF-8"?>
<svg id="Layer_1" data-name="Layer 1" xmlns="http://www.w3.org/2000/svg" viewBox="0 0 1920 1080">
  <defs>
    <style>
      .cls-1 {
        font-size: 42px;
        font-style: oblique;
      }

      .cls-1, .cls-2 {
        fill: #034c7f;
      }

      .cls-3, .cls-4, .cls-5, .cls-6, .cls-7 {
        font-family: Avenir-LightOblique, Avenir;
        font-weight: 300;
      }

      .cls-3, .cls-8 {
        letter-spacing: .03em;
      }

      .cls-4 {
        letter-spacing: .03em;
      }

      .cls-5, .cls-9 {
        letter-spacing: .03em;
      }

      .cls-6, .cls-10, .cls-11 {
        letter-spacing: .03em;
      }

      .cls-2 {
        font-size: 252px;
      }

      .cls-2, .cls-12 {
        font-family: HelveticaNeue-Bold, 'Helvetica Neue';
        font-weight: 700;
      }

      .cls-12 {
        font-size: 239px;
      }

      .cls-12, .cls-13 {
        fill: #56c0ff;
      }

      .cls-10 {
        font-family: Avenir-BlackOblique, Avenir;
        font-weight: 800;
      }

      .cls-14 {
        fill: #fff;
      }

      .cls-15 {
        letter-spacing: .02em;
      }
    </style>
  </defs>
  <rect class="cls-14" x="560" y="184" width="930" height="639"/>
  <g id="OFC_LOGO" data-name="OFC LOGO">
    <g>
      <text class="cls-2" transform="translate(666.33 404.86)"><tspan x="0" y="0">Ops</tspan></text>
      <rect class="cls-14" x="854" y="441" width="106" height="42"/>
    </g>
    <text class="cls-12" transform="translate(650.85 622.36)"><tspan x="0" y="0">SCALE</tspan></text>
  </g>
  <text class="cls-1" transform="translate(663.6 697.96)"><tspan class="cls-6" x="0" y="0">Scalable</tspan><tspan class="cls-10" x="167.75" y="0"> </tspan><tspan class="cls-5" x="181.61" y="0">me</tspan><tspan class="cls-4" x="243.6" y="0">d</tspan><tspan class="cls-5" x="270.73" y="0">ia &amp; tech solu</tspan><tspan class="cls-3" x="542.09" y="0">t</tspan><tspan class="cls-5" x="557.54" y="0">ions </tspan><tspan class="cls-7"><tspan class="cls-11" x="0" y="50.4">for opera</tspan><tspan class="cls-8" x="184.88" y="50.4">t</tspan><tspan class="cls-9" x="200.34" y="50.4">ional g</tspan><tspan class="cls-15" x="337.17" y="50.4">r</tspan><tspan class="cls-11" x="351.83" y="50.4">ow</tspan><tspan class="cls-8" x="409.2" y="50.4">t</tspan><tspan class="cls-9" x="424.66" y="50.4">h.</tspan></tspan></text>
  <path class="cls-13" d="M744.7,284.78l50.03,28.57c1.66.95,1.66,3.35,0,4.3l-50.03,28.57c-1.65.94-3.7-.25-3.7-2.15v-57.15c0-1.9,2.05-3.09,3.7-2.15Z"/>
</svg>